<?xml version="1.0" standalone="no"?>
<!DOCTYPE svg PUBLIC "-//W3C//DTD SVG 20010904//EN"
 "http://www.w3.org/TR/2001/REC-SVG-20010904/DTD/svg10.dtd">
<svg version="1.0" xmlns="http://www.w3.org/2000/svg"
 width="225.000000pt" height="225.000000pt" viewBox="0 0 225.000000 225.000000"
 preserveAspectRatio="xMidYMid meet">

<g transform="translate(0.000000,225.000000) scale(0.100000,-0.100000)"
fill="#000000" stroke="none">
<path d="M1644 1757 c-16 -14 -44 -56 -63 -95 -50 -104 -30 -131 65 -88 31 15
59 24 61 22 8 -7 -59 -77 -101 -105 -44 -30 -133 -67 -142 -59 -2 3 8 21 23
39 l28 34 -41 -32 c-48 -38 -69 -61 -61 -69 11 -11 133 27 180 56 46 29 64 31
30 3 -44 -35 -102 -68 -148 -84 -27 -10 -41 -18 -30 -19 41 0 147 60 205 118
55 56 130 160 130 182 0 5 -9 10 -20 10 -11 0 -19 -5 -17 -11 2 -13 -108 -57
-119 -47 -10 11 4 70 27 108 19 31 22 33 34 17 18 -25 24 -21 16 10 -10 36
-23 38 -57 10z"/>
<path d="M1599 1766 c-2 -2 -85 -6 -184 -9 -211 -6 -292 -23 -419 -90 -80 -42
-81 -42 -100 -24 -14 14 -20 16 -26 7 -5 -9 -9 -9 -14 -1 -10 16 -35 14 -53
-4 -9 -10 -23 -13 -37 -9 -11 4 -18 3 -13 -1 4 -5 0 -16 -8 -25 -8 -9 -20 -43
-26 -76 -6 -32 -15 -63 -20 -68 -5 -6 -9 -19 -9 -31 0 -31 -24 -59 -85 -100
-65 -43 -95 -73 -95 -94 0 -9 17 -30 37 -47 l38 -32 1 -93 c0 -79 4 -103 26
-149 14 -30 35 -66 46 -80 l21 -25 1 76 c0 91 26 183 71 254 48 76 5 32 -53
-54 -51 -77 -55 -69 -13 26 52 117 151 230 265 306 41 27 64 46 50 43 -58 -16
-189 -88 -239 -133 -73 -64 -50 -21 38 70 71 74 146 124 228 153 35 12 54 25
57 39 3 11 17 34 31 50 l26 30 -16 -33 c-9 -18 -19 -55 -22 -82 -10 -88 54
-176 142 -195 29 -7 28 -6 -9 18 -57 35 -86 89 -86 159 0 51 3 59 31 82 17 14
36 26 44 26 7 0 20 10 29 23 15 19 16 20 10 2 -25 -74 -26 -96 -10 -139 9 -24
27 -53 40 -65 l24 -23 -24 48 c-29 57 -30 74 -4 123 21 41 36 51 79 51 15 0
36 9 46 20 24 27 82 42 108 29 16 -9 18 -18 13 -52 l-6 -42 23 43 c12 23 35
56 50 72 18 19 24 30 15 30 -8 0 -17 -2 -19 -4z"/>
<path d="M1456 1687 c-35 -26 4 -84 41 -61 23 14 31 39 10 31 -18 -7 -42 17
-32 33 8 14 3 13 -19 -3z"/>
<path d="M1335 1575 c10 -53 72 -83 115 -55 11 7 7 10 -17 10 -45 0 -81 19
-93 49 -10 26 -10 26 -5 -4z"/>
<path d="M1074 1360 c-87 -13 -224 -87 -224 -122 0 -4 26 -15 57 -24 67 -20
136 -14 198 16 40 19 43 24 42 58 -1 20 2 47 6 60 9 25 9 25 -79 12z"/>
<path d="M1225 1340 c3 -5 26 -16 50 -26 l46 -17 -23 -24 c-42 -45 -199 -143
-326 -204 -135 -65 -167 -86 -194 -127 -31 -47 -19 -54 19 -12 28 31 78 61
217 129 175 86 303 169 370 240 l30 31 -65 0 c-35 0 -79 4 -97 9 -18 6 -30 6
-27 1z"/>
<path d="M1417 1292 l-27 -28 50 -21 c49 -21 50 -21 50 -2 0 24 -27 79 -38 79
-5 0 -20 -13 -35 -28z"/>
<path d="M1220 1145 c-62 -46 -68 -79 -15 -89 19 -4 35 -12 35 -19 1 -33 30
33 30 67 0 62 -10 70 -50 41z"/>
<path d="M1072 1047 c-22 -9 -41 -27 -58 -57 -55 -98 -102 -125 -168 -100 -40
15 -31 1 10 -16 20 -8 51 -14 68 -13 17 2 37 0 44 -5 23 -14 52 -85 51 -123
l-1 -38 -9 45 c-14 72 -36 94 -102 100 -31 3 -62 11 -69 18 -20 20 -28 14 -16
-14 7 -14 23 -32 37 -39 14 -8 20 -14 13 -15 -7 0 -23 5 -34 11 -15 8 -19 8
-13 0 11 -18 108 -71 131 -71 27 0 33 -7 27 -31 -12 -45 -144 -2 -202 67 -18
22 -28 29 -22 18 18 -37 99 -101 155 -124 39 -16 62 -33 86 -66 41 -58 115
-100 203 -114 79 -14 93 -7 71 35 -28 55 -127 175 -160 196 -39 24 -41 30 -15
53 48 44 69 208 34 267 -10 16 -20 29 -23 28 -3 0 -20 -6 -38 -12z"/>
<path d="M713 767 c3 -31 17 -83 32 -114 26 -58 70 -123 83 -123 4 0 6 34 4
75 -3 70 -6 76 -33 96 -16 11 -43 44 -60 72 l-31 52 5 -58z"/>
</g>
</svg>
